<svg xmlns="http://www.w3.org/2000/svg" viewBox="0 0 200 200"><defs><style>.cls-1{fill:#fff;}</style></defs><title>awardsZeichenfläche 54</title><g id="Ebene_1" data-name="Ebene 1"><path class="cls-1" d="M137.29,46l0-.49c.1-3.24.11-5.43.11-6,0-2.18,0-.35-.1-2.49H62.73c-.07,2.14-.1.31-.1,2.49,0,.69,0,3,.15,6.53H42s.23,18,4.95,29.88C52.64,90.27,66.39,96,76.36,98.35a51,51,0,0,0,15.87,13v4.4H94c.19.35,1,2,1,5.76a30.89,30.89,0,0,1-1.9,9.95H91.92l-7.92,7h32l-8.08-7h-1a37.78,37.78,0,0,1-1.92-9.95c0-3.82.76-5.42,1-5.76h1.82v-4.4a51,51,0,0,0,15.87-13c10-2.34,23.72-8.09,29.41-22.45C157.77,64,158,46,158,46ZM59.95,83.23c-9.66-7.62-10.7-29.84-10.7-29.84H63.19a211.75,211.75,0,0,0,2.95,23.44A46,46,0,0,0,70.24,89,50.1,50.1,0,0,1,59.95,83.23ZM100,80.08,88.22,87.27l3.2-13.42-10.48-9,13.76-1.1L100,51l5.3,12.74,13.76,1.1-10.48,9,3.2,13.42Zm40.05,3.15A50.11,50.11,0,0,1,129.76,89a46,46,0,0,0,4.1-12.13,198,198,0,0,0,3-23.44h13.87S149.71,75.61,140.05,83.23Z"/><rect class="cls-1" x="78" y="141" width="44" height="15.5"/><rect class="cls-1" x="75.94" y="159" width="48.12" height="4"/></g></svg>