<svg id="Ebene_1" data-name="Ebene 1" xmlns="http://www.w3.org/2000/svg" viewBox="0 0 200 200"><defs><style>.cls-1{fill:#fff;}</style></defs><title>gfxZeichenfläche 2 Kopie 19</title><path class="cls-1" d="M171.43,41.07H28.57V158.93H171.43ZM65.59,49h50.82V60.3H65.59S65.59,49.82,65.59,49ZM50.25,50.54c6-4.61,12.89,2.23,8.28,8.27C52.48,63.41,45.65,56.58,50.25,50.54Zm-13.88,0c6-4.61,12.88,2.23,8.27,8.28C38.6,63.41,31.77,56.58,36.37,50.54Zm130,20v83.33H33.61V70.58Z"/><path class="cls-1" d="M100,85.65A24.35,24.35,0,1,0,124.35,110,24.35,24.35,0,0,0,100,85.65Zm20.56,18.91-4-1.77a19.27,19.27,0,0,0-2.09-8.36A21.32,21.32,0,0,1,120.56,104.56Zm-19.88,7.17,10.16,4.53a28.59,28.59,0,0,1-5.54,7.74l-8.41-3.75Zm-1.35-3.52-10.15-4.53A28.56,28.56,0,0,1,94.72,96l8.41,3.75Zm2.44,1.08,3.79-8.52,8.41,3.75a28.6,28.6,0,0,1-2.05,9.29Zm12.12-7.72-7.24-3.23,2.64-5.93C111.94,94.19,113.5,97.52,113.89,101.59Zm-7-10.25-2.65,5.94L97,94C100.24,91.61,103.77,90.54,106.86,91.33Zm-5-2.52a19.15,19.15,0,0,0-7.61,4l-4-1.77A21.24,21.24,0,0,1,101.88,88.81ZM87.55,92.76l4.59,2a31.21,31.21,0,0,0-5.4,7.8l-5.56-2.48A21.12,21.12,0,0,1,87.55,92.76Zm-8.1,22.64,4,1.77a19.06,19.06,0,0,0,2.08,8.35A21.23,21.23,0,0,1,79.45,115.4Zm4-1.13-4.59-2a21.18,21.18,0,0,1,1.23-9.66L85.66,105A31.12,31.12,0,0,0,83.46,114.27Zm4.63-8.15,10.16,4.53-3.8,8.51L86,115.42A28.75,28.75,0,0,1,88.08,106.12Zm-2,12.24,7.24,3.23-2.65,5.93C88.06,125.76,86.5,122.43,86.11,118.36Zm7,10.25,2.64-5.94,7.25,3.23C99.75,128.34,96.23,129.41,93.14,128.62Zm5,2.52a19.11,19.11,0,0,0,7.61-4l4,1.77A21.3,21.3,0,0,1,98.12,131.14Zm14.32-3.95-4.59-2.05a31.24,31.24,0,0,0,5.4-7.8l5.56,2.48A21.14,21.14,0,0,1,112.45,127.2Zm7.46-9.8-5.56-2.48a31.21,31.21,0,0,0,2.2-9.23l4.59,2A21.12,21.12,0,0,1,119.9,117.4Z"/></svg>