<svg id="Ebene_1" data-name="Ebene 1" xmlns="http://www.w3.org/2000/svg" viewBox="0 0 200 200"><defs><style>.cls-1{fill:#fff;}</style></defs><title>gfxZeichenfläche 2 Kopie 17</title><path class="cls-1" d="M161.58,48h-7V58.82c0,6.32-5.66,11.45-12.61,11.45s-12.61-5.14-12.61-11.45V48H70.72V58.82c0,6.32-5.66,11.45-12.61,11.45S45.49,65.14,45.49,58.82V48H29V163.86H171V48Zm2.14,108.2H36.29V85.1H163.71Z"/><path class="cls-1" d="M58.1,65.56c4.1,0,7.42-2.78,7.42-6.2v-21c0-3.42-3.32-6.2-7.42-6.2s-7.42,2.78-7.42,6.2v21C50.68,62.78,54,65.56,58.1,65.56Z"/><path class="cls-1" d="M141.94,65.56c4.1,0,7.42-2.78,7.42-6.2v-21c0-3.42-3.32-6.2-7.42-6.2s-7.42,2.78-7.42,6.2v21C134.52,62.78,137.84,65.56,141.94,65.56Z"/><rect class="cls-1" x="42.32" y="90.89" width="25.03" height="26.82"/><rect class="cls-1" x="72.62" y="90.89" width="25.03" height="26.82"/><rect class="cls-1" x="102.92" y="90.89" width="25.03" height="26.82"/><rect class="cls-1" x="133.22" y="90.89" width="25.03" height="26.82"/><rect class="cls-1" x="42.32" y="123.52" width="25.03" height="26.82"/><rect class="cls-1" x="72.62" y="123.52" width="25.03" height="26.82"/><rect class="cls-1" x="102.92" y="123.52" width="25.03" height="26.82"/></svg>