<svg id="Ebene_1" data-name="Ebene 1" xmlns="http://www.w3.org/2000/svg" viewBox="0 0 200 200"><defs><style>.cls-1{fill:#fff;}</style></defs><title>gfxZeichenfläche 2 Kopie 10</title><path class="cls-1" d="M126.88,124.61a13,13,0,1,0,13,13A13,13,0,0,0,126.88,124.61Zm0,22.9a9.88,9.88,0,1,1,9.89-9.89A9.9,9.9,0,0,1,126.88,147.51Z"/><path class="cls-1" d="M149.79,34.52H53v117h61l-5.73,18.53,8.58-4.53,4.53,8.58,6.06-19.6,6.06,19.6,4.53-8.58,8.58,4.53-5.73-18.53h8.94ZM83.54,54.76h34.61v8H83.54ZM63.08,74.94h75.54v8H63.08Zm0,17.29h75.54v8H63.08ZM97.68,117.5H63.08v-8H97.68Zm29.2,36.86a16.74,16.74,0,1,1,16.74-16.74A16.74,16.74,0,0,1,126.88,154.36Z"/></svg>