<svg id="Ebene_1" data-name="Ebene 1" xmlns="http://www.w3.org/2000/svg" viewBox="0 0 200 200"><defs><style>.cls-1{fill:#fff;}</style></defs><title>gfxZeichenfläche 2 Kopie 6</title><path class="cls-1" d="M100.32,83.66A24.35,24.35,0,1,0,124.68,108,24.35,24.35,0,0,0,100.32,83.66Zm20.56,18.91-4-1.77a19.27,19.27,0,0,0-2.09-8.36A21.32,21.32,0,0,1,120.88,102.57ZM101,109.75l10.16,4.53a28.59,28.59,0,0,1-5.54,7.74l-8.41-3.75Zm-1.35-3.52L89.5,101.7A28.56,28.56,0,0,1,95,94l8.41,3.75Zm2.44,1.08,3.79-8.52,8.41,3.75a28.6,28.6,0,0,1-2.05,9.29Zm12.12-7.72L107,96.37l2.64-5.93C112.26,92.2,113.83,95.54,114.21,99.6Zm-7-10.25-2.65,5.94-7.25-3.23C100.57,89.62,104.09,88.56,107.18,89.35Zm-5-2.52a19.15,19.15,0,0,0-7.61,4l-4-1.77A21.24,21.24,0,0,1,102.2,86.82ZM87.87,90.77l4.59,2a31.21,31.21,0,0,0-5.4,7.8L81.5,98.14A21.12,21.12,0,0,1,87.87,90.77Zm-8.1,22.64,4,1.77a19.06,19.06,0,0,0,2.08,8.35A21.23,21.23,0,0,1,79.77,113.41Zm4-1.13-4.59-2a21.18,21.18,0,0,1,1.23-9.66L86,103.05A31.12,31.12,0,0,0,83.78,112.28Zm4.63-8.15,10.16,4.53-3.8,8.51-8.41-3.75A28.75,28.75,0,0,1,88.41,104.14Zm-2,12.24,7.24,3.23L91,125.55C88.39,123.78,86.82,120.45,86.43,116.38Zm7,10.25,2.64-5.94,7.25,3.23C100.08,126.36,96.55,127.43,93.47,126.63Zm5,2.52a19.11,19.11,0,0,0,7.61-4l4,1.77A21.3,21.3,0,0,1,98.45,129.16Zm14.32-3.95-4.59-2.05a31.24,31.24,0,0,0,5.4-7.8l5.56,2.48A21.14,21.14,0,0,1,112.77,125.21Zm7.46-9.8-5.56-2.48a31.21,31.21,0,0,0,2.2-9.23l4.59,2A21.12,21.12,0,0,1,120.23,115.41Z"/><path class="cls-1" d="M123.27,144H32.59V72.17H168.05v40.12l3.29-3.25,3.31,3.28V46.14H26V151H130.21ZM57.1,54.37H108v9H57.1v-9Zm-8.86,0a4.5,4.5,0,1,1-4.5,4.5A4.5,4.5,0,0,1,48.24,54.37Zm-11.14,0a4.5,4.5,0,1,1-4.5,4.5A4.5,4.5,0,0,1,37.1,54.37Z"/><polygon class="cls-1" points="160.26 150.99 166.65 150.99 174.65 150.99 174.65 136.27 160.26 150.99"/><path class="cls-1" d="M171.34,113.79l-26.49,26.49-11.4-11.4h0l-10.18,10.19h0L143.5,159.3a1.87,1.87,0,0,0,.92.5,1.9,1.9,0,0,0,1.8-.5L181.52,124Z"/></svg>