<svg id="Ebene_1" data-name="Ebene 1" xmlns="http://www.w3.org/2000/svg" viewBox="0 0 200 200"><defs><style>.cls-1{fill:#fff;}</style></defs><title>gfxZeichenfläche 41</title><path class="cls-1" d="M146,48.68V59.8c0,6.48-5.81,11.75-12.94,11.75s-12.94-5.27-12.94-11.75V48.68H79.95V59.8c0,6.48-5.81,11.75-12.94,11.75S54.06,66.28,54.06,59.8V48.68H42.86V167.57H157.14V48.68Zm3.68,111H50.34V86.76h99.33Z"/><path class="cls-1" d="M67,32.42c-4.21,0-7.62,2.85-7.62,6.36V60.35c0,3.51,3.41,6.36,7.62,6.36s7.62-2.85,7.62-6.36V38.78C74.62,35.27,71.21,32.42,67,32.42Z"/><path class="cls-1" d="M133,32.42c-4.21,0-7.62,2.85-7.62,6.36V60.35c0,3.51,3.41,6.36,7.62,6.36s7.62-2.85,7.62-6.36V38.78C140.65,35.27,137.24,32.42,133,32.42Z"/><polygon class="cls-1" points="119.38 98.73 91.7 126.41 79.79 114.49 69.15 125.14 91.73 147.7 130.03 109.37 119.38 98.73"/></svg>