<svg id="Ebene_1" data-name="Ebene 1" xmlns="http://www.w3.org/2000/svg" viewBox="0 0 200 200"><defs><style>.cls-1{fill:#fff;}</style></defs><title>gfxZeichenfläche 2 Kopie 8</title><path class="cls-1" d="M89.27,93.09a11.38,11.38,0,1,0,9.29,9.29A11.38,11.38,0,0,0,89.27,93.09ZM83.7,110.74V97.86l11.16,6.44Z"/><rect class="cls-1" x="107.73" y="95.09" width="38.8" height="6.34"/><rect class="cls-1" x="107.73" y="108.62" width="38.8" height="6.35"/><rect class="cls-1" x="77.96" y="124.32" width="68.58" height="6.34"/><path class="cls-1" d="M96.48,59c-3.57,9.23-8.21,13.38-13.66,17.74a1.47,1.47,0,0,0-.25.28h80.21v65.86H59.5V82.6a22.89,22.89,0,0,1-5.66-.75v67h114.6V59Zm53.63,14.72a3.87,3.87,0,1,1,3-3A3.87,3.87,0,0,1,150.12,73.76Zm9.56,0a3.87,3.87,0,1,1,3-3A3.87,3.87,0,0,1,159.68,73.76Z"/><path class="cls-1" d="M77.78,76.3C85,72.32,95.71,60,93.33,55.64l-.07-.1-.07-.14-5-7.41L71.72,65.42,48.55,69.66l3.6,8.07.13.24C54.66,82.35,72.06,79.44,77.78,76.3Z"/><polygon class="cls-1" points="101.72 29.13 56.9 37.35 25.55 70.7 70.08 62.56 101.72 29.13"/><path class="cls-1" d="M33.4,84.4V71.47l-2.65.28V84.19c-2.09.79-3.45,3.68-3.14,7,.35,3.72,5.25,13.24,5.67,10.7.86-5.16,1.38-10,1.84-11.4C36,87.8,35,85.35,33.4,84.4Z"/></svg>