<svg id="Ebene_1" data-name="Ebene 1" xmlns="http://www.w3.org/2000/svg" viewBox="0 0 200 200"><defs><style>.cls-1{fill:#fff;}</style></defs><title>gfxZeichenfläche 43</title><path class="cls-1" d="M163.54,73.36h-79a2.07,2.07,0,0,1,0-4.14h33.32a7.38,7.38,0,0,0,0-14.76H80.38c-4.06,0-14.15,1.45-20.24,7.38C55.62,66.25,44,78.75,39.91,78.75H28.72L29,132.2H40.09c2.5,0,5.71,0,13.57,3.62S71,145.54,79.1,145.54h41.82a7.38,7.38,0,0,0,0-14.76H103.61a2.07,2.07,0,1,1,0-4.14h27.84a7.4,7.4,0,0,0,7.38-7.38h0a7.4,7.4,0,0,0-7.38-7.38H103.61a2.07,2.07,0,1,1,0-4.14h32a7.38,7.38,0,0,0,0-14.76h-32a2.07,2.07,0,1,1,0-4.14h59.93a7.74,7.74,0,1,0,0-15.48Z"/></svg>