<svg id="Ebene_1" data-name="Ebene 1" xmlns="http://www.w3.org/2000/svg" viewBox="0 0 200 200"><defs><style>.cls-1{fill:#fff;}</style></defs><title>gfxZeichenfläche 39</title><path class="cls-1" d="M167.75,95.91c-.59-1-2.32-2.93-3.38-4.34-16-21.36-39.09-32.68-65.12-32.68C82.38,58.89,51,65.79,32,96.56c-.84,1.36-.77,2.15.21,4,12.37,23.46,44.62,39.66,76.67,36,23.19-2.43,42-12.88,55.82-32C168.34,99.6,169.54,98.83,167.75,95.91Zm-67.21,34.92A32.62,32.62,0,1,1,133,98.18,32.75,32.75,0,0,1,100.55,130.83Z"/><path class="cls-1" d="M110.05,93.4A6.8,6.8,0,0,1,108,80.12a20.08,20.08,0,1,0,8.79,7.4A6.8,6.8,0,0,1,110.05,93.4Z"/></svg>