<svg id="Ebene_1" data-name="Ebene 1" xmlns="http://www.w3.org/2000/svg" viewBox="0 0 200 200"><defs><style>.cls-1{fill:#fff;}</style></defs><title>gfxZeichenfläche 2 Kopie 3</title><polygon class="cls-1" points="147.69 62.83 148.36 62.83 148.36 53.97 148.36 53.97 106.23 53.97 85.48 53.97 71.02 53.97 59.49 48.25 48.3 48.25 35.72 48.25 35.72 61.95 35.72 61.95 35.72 67.63 35.72 79.07 35.72 114.68 35.72 125.39 35.72 149.75 38.46 149.75 44.31 62.83 75.74 62.83 147.69 62.83"/><polygon class="cls-1" points="81.59 69.75 51.64 69.75 46.54 149.75 59.63 149.75 68.09 149.75 151.69 149.75 159.28 149.75 164.28 69.75 81.59 69.75"/></svg>