<svg id="Ebene_1" data-name="Ebene 1" xmlns="http://www.w3.org/2000/svg" viewBox="0 0 200 200"><defs><style>.cls-1{fill:#fff;}</style></defs><title>gfxZeichenfläche 2 Kopie 9</title><path class="cls-1" d="M152.68,138H135.32l-9.92-15-10.19,15h-17l18.31-25.1-18-25h17.36l9.75,14.71,9.8-14.71h17.07L134.41,112.6Z"/><polygon class="cls-1" points="165.26 56.46 101.4 56.46 94.45 56.46 64.1 129.57 51.08 92.7 34.74 92.7 34.74 98.94 44.6 98.94 60.56 143.54 64.81 143.54 98.68 63.9 165.26 63.9 165.26 56.46"/><path class="cls-1" d="M65.44,144.61H59.88L43.92,100H33.75V91.63h18l12.4,35.14L93.81,55.39h72.44V65H99.31Zm-4.2-2.14h2.93L98,62.83h66.22V57.53H95.1L64,132.37,50.4,93.77H35.73v4.1h9.54Z"/></svg>