<svg id="Ebene_1" data-name="Ebene 1" xmlns="http://www.w3.org/2000/svg" viewBox="0 0 200 200"><defs><style>.cls-1{fill:#fff;}</style></defs><title>gfxZeichenfläche 2</title><path class="cls-1" d="M120.48,60.41C109.23,45.41,92.43,39.5,73,39.5c-30.1,0-54.5,18.62-54.5,41.59,0,12.76,7.54,24.17,19.4,31.79L29,136.41l23.16-16.9A67.82,67.82,0,0,0,65.7,122.3a40.34,40.34,0,0,1-2.2-13.1C63.5,83.68,88.73,62.91,120.48,60.41Z"/><path class="cls-1" d="M183.5,109.16c0-22.49-24.67-40.79-55-40.79s-55,18.3-55,40.79,24.67,40.79,55,40.79a72.32,72.32,0,0,0,17.39-2.1l25.56,18.65-9.47-25C175.06,134,183.5,122.31,183.5,109.16Z"/></svg>