<svg id="Ebene_1" data-name="Ebene 1" xmlns="http://www.w3.org/2000/svg" viewBox="0 0 200 200"><defs><style>.cls-1{fill:#fff;}</style></defs><title>gfxZeichenfläche 2 Kopie 18</title><path class="cls-1" d="M101.08,94.15A22.31,22.31,0,1,1,78.78,71.76,22.34,22.34,0,0,1,101.08,94.15Z"/><path class="cls-1" d="M100.6,114.37a29.58,29.58,0,0,1-43.65,0c-10.21,8.74-13,19.23-13,39.85A174.54,174.54,0,0,0,78.77,158a161.43,161.43,0,0,0,33.15-3.47C111.93,133,110.81,123.11,100.6,114.37Z"/><path class="cls-1" d="M143.37,38V58.87H164v9H143.37V88.94h-9.67V67.87H113.06v-9h20.63V38Z"/></svg>