<svg id="Ebene_1" data-name="Ebene 1" xmlns="http://www.w3.org/2000/svg" viewBox="0 0 200 200"><defs><style>.cls-1{fill:#fff;}</style></defs><title>gfxZeichenfläche 2 Kopie 22</title><path class="cls-1" d="M47,30.35v135H153v-135Zm49.07,85h-38v-9.2h38Zm44.65.73h-1.56l-.23-.18a14.09,14.09,0,0,0-4.75-2.54,20.55,20.55,0,0,0-6-.82,11.68,11.68,0,0,0-7.49,2.73,13.73,13.73,0,0,0-4.35,6.42h13.43l-1.85,5H115.36q0,.31,0,.63c0,.47,0,.95,0,1.41s0,.84,0,1.26c0,.15,0,.3,0,.45h11.1l-1.85,5h-8.35a13.78,13.78,0,0,0,4.49,6.59,11.8,11.8,0,0,0,7.42,2.76,20.79,20.79,0,0,0,6.64-.84,12.3,12.3,0,0,0,4.14-2.44l.23-.21h1.56v7.13l-.47.22a26.17,26.17,0,0,1-5.82,2,31.87,31.87,0,0,1-6.31.55,20,20,0,0,1-12.69-4.42,19.29,19.29,0,0,1-6.89-11.37h-4.28l1.85-5h1.79q0-.19,0-.39c0-.45,0-.89,0-1.31s0-1,0-1.49c0-.19,0-.37,0-.55h-3.65l1.85-5h2.54a20.22,20.22,0,0,1,7-11.2,19.7,19.7,0,0,1,12.57-4.34,33.29,33.29,0,0,1,6.82.59,20,20,0,0,1,5.26,1.92l.43.23Zm.06-20.67H58.07v-9.2h82.7Zm0-19.94H58.07v-9.2h82.7Zm0-19.94H58.07V46.3h82.7Z"/></svg>