<svg id="Ebene_1" data-name="Ebene 1" xmlns="http://www.w3.org/2000/svg" viewBox="0 0 200 200"><defs><style>.cls-1{fill:#fff;}</style></defs><title>gfxZeichenfläche 2 Kopie</title><path class="cls-1" d="M171.43,35H28.57V158.9H171.43ZM65.59,43h50.82V54.27H65.59S65.59,43.79,65.59,43ZM50.25,44.51c6-4.61,12.89,2.23,8.28,8.27C52.48,57.39,45.65,50.56,50.25,44.51Zm-13.88,0c6-4.61,12.88,2.23,8.27,8.28C38.6,57.39,31.77,50.56,36.37,44.51Zm130,20v89.33H33.61V64.56Z"/><rect class="cls-1" x="94.13" y="82.85" width="50.49" height="8.26"/><rect class="cls-1" x="94.13" y="100.46" width="50.49" height="8.26"/><rect class="cls-1" x="55.38" y="120.88" width="89.23" height="8.26"/><rect class="cls-1" x="55.38" y="82.85" width="25.86" height="25.86"/></svg>