<svg id="Ebene_1" data-name="Ebene 1" xmlns="http://www.w3.org/2000/svg" viewBox="0 0 200 200"><defs><style>.cls-1{fill:#878787;}</style></defs><title>gfxZeichenfläche 44</title><path class="cls-1" d="M68.17,140.83H88q.15,6.18,4,9.57a13.23,13.23,0,0,0,9,3.39q5.42,0,8.17-2.83a8.44,8.44,0,0,0-.79-13.11Q104.86,135,93,130q-16.5-6.93-23-13.56a21,21,0,0,1-6.48-15.07q0-14.84,15.67-22.9Q66.89,69.79,66.89,57.06T76,37.32q9.15-7,23.24-7,16,0,24.37,8.14a26.84,26.84,0,0,1,8.32,20H112.17q-.68-12.35-13.48-12.35-5.35,0-8.06,2.49A7.37,7.37,0,0,0,87.91,54a9.66,9.66,0,0,0,3.62,7.57q3.62,3.13,16,8.25,15.22,6.33,22.11,13t6.89,15.44q0,13.56-15.29,23.35Q133,128.93,133,142.64A24.58,24.58,0,0,1,124.11,162q-8.85,7.72-23.24,7.72-14.62,0-23.47-8.25A28.25,28.25,0,0,1,68.17,140.83Zm42.19-25.61q7.23-5.5,7.23-11.9t-11.9-11.75L89.57,84.48q-7,4.67-7,11.07a9.34,9.34,0,0,0,2.79,6.67q2.79,2.9,10.4,6.37Z"/></svg>