<svg id="Ebene_1" data-name="Ebene 1" xmlns="http://www.w3.org/2000/svg" viewBox="0 0 200 200"><defs><style>.cls-1{fill:#fff;}</style></defs><title>gfxZeichenfläche 2 Kopie 14</title><rect class="cls-1" x="85.93" y="135.5" width="17.95" height="18.42"/><path class="cls-1" d="M121.66,53.69c-6-5.05-14.26-7.61-24.49-7.61a73.4,73.4,0,0,0-14.3,1.51A78,78,0,0,0,70.4,51l-1.28.49V68.81h3.26l.49-.3a52.24,52.24,0,0,1,10-4.53,40,40,0,0,1,13.31-2.21c5.06,0,9.21,1.15,12.33,3.41,3,2.15,4.4,5.39,4.4,9.9A17.33,17.33,0,0,1,111,83.76a28.7,28.7,0,0,1-5.79,6.89,45.07,45.07,0,0,1-8.08,5.82q-5.15,3-9.59,5.53l-1,.58v24h16.24V110.35c3.41-2,6.67-4,9.73-6.13a61.58,61.58,0,0,0,9.13-7.58,35.12,35.12,0,0,0,6.67-9.82,30.49,30.49,0,0,0,2.57-12.76C130.88,65.68,127.78,58.83,121.66,53.69Z"/></svg>