<svg id="Ebene_1" data-name="Ebene 1" xmlns="http://www.w3.org/2000/svg" viewBox="0 0 200 200"><defs><style>.cls-1{fill:#fff;}</style></defs><title>gfxZeichenfläche 2 Kopie 4</title><rect class="cls-1" x="94.23" y="154.43" width="7.37" height="7.56"/><path class="cls-1" d="M108.89,120.84c-2.47-2.07-5.85-3.12-10.06-3.12a30.13,30.13,0,0,0-5.87.62,32,32,0,0,0-5.12,1.4l-.53.2V127h1.34l.2-.12A21.45,21.45,0,0,1,93,125.07a16.41,16.41,0,0,1,5.47-.91,8.46,8.46,0,0,1,5.06,1.4,4.65,4.65,0,0,1,1.81,4.06,7.12,7.12,0,0,1-.79,3.56,11.78,11.78,0,0,1-2.38,2.83,18.5,18.5,0,0,1-3.32,2.39l-3.94,2.27-.41.24v9.86h6.67V144.1c1.4-.81,2.74-1.66,4-2.52a25.28,25.28,0,0,0,3.75-3.11,14.42,14.42,0,0,0,2.74-4,12.52,12.52,0,0,0,1.06-5.24A10.43,10.43,0,0,0,108.89,120.84Z"/><path class="cls-1" d="M126.48,30.24v53h-53v-53h53m5.71-5.71H67.81V88.91h64.38V24.52Z"/><polygon class="cls-1" points="113.87 39.64 95.35 58.16 86.11 48.91 77.88 57.13 95.39 74.62 122.12 47.88 113.87 39.64"/><path class="cls-1" d="M126.48,113.93v53h-53v-53h53m5.71-5.71H67.81v64.38h64.38V108.21Z"/></svg>