<?xml version="1.0" encoding="utf-8"?>
<!-- Generator: Adobe Illustrator 21.0.2, SVG Export Plug-In . SVG Version: 6.00 Build 0)  -->
<svg version="1.1" id="Ebene_1" xmlns="http://www.w3.org/2000/svg" xmlns:xlink="http://www.w3.org/1999/xlink" x="0px" y="0px"
	 viewBox="0 0 200 200" style="enable-background:new 0 0 200 200;" xml:space="preserve">
<style type="text/css">
	.st0{fill:#FFFFFF;}
</style>
<title>shopingZeichenfläche 2 Kopie 24200</title>
<g id="Ebene_1_1_">
	<path class="st0" d="M133.2,142.8c-6.8,0-12.4,5.6-12.4,12.4s5.6,12.4,12.4,12.4s12.4-5.6,12.4-12.4l0,0
		C145.6,148.4,140,142.8,133.2,142.8z"/>
	<path class="st0" d="M83.6,142.8c-6.8,0-12.4,5.6-12.4,12.4c0,6.8,5.6,12.4,12.4,12.4l0,0c6.8,0,12.4-5.6,12.4-12.4
		C96,148.4,90.4,142.8,83.6,142.8z"/>
	<path class="st0" d="M152,128.8c-26.8,0-48,0-74.8,0c-3.2,0-4.8-1.2-5.2-3.6c-0.8-4-1.2-8-2-12.4l86.4-8.4l10-55.2H58.8
		c-0.4-1.6-0.4-2.4-0.8-4c-1.2-6-5.6-11.6-11.6-13.2H33.6l2,10.4c1.6,0,5.2,0,7.2,0c2.8,0,5.2,0.8,5.6,3.6l15.2,84
		c2.4,5.2,7.2,8,13.6,8H150L152,128.8z"/>
</g>
</svg>
