<svg id="Ebene_1" data-name="Ebene 1" xmlns="http://www.w3.org/2000/svg" viewBox="0 0 200 200"><defs><style>.cls-1{fill:#fff;}</style></defs><title>gfxZeichenfläche 2 Kopie 20</title><path class="cls-1" d="M100,70.07a91.61,91.61,0,0,0-5.93-22.28c-.21-.48-.42-1-.64-1.42l-.09-.21-.12-.22c-.47-1-1-1.92-1.47-2.86a27.8,27.8,0,0,0-2.7-4l-.28-.38c-.18-.33-.5-.52-.71-.81s-.62-.58-.86-.94L87,36.8l-.07-.07-.06,0c-.53-.43-1.05-.86-1.61-1.26l-.29-.17-.1-.09-.57-.27a9.06,9.06,0,0,0-2.6-.89,7.24,7.24,0,0,0-1.42-.13h-.61a.15.15,0,0,0-.08,0l-.39.05a10.09,10.09,0,0,0-4.81,2.23,21.08,21.08,0,0,0-3.79,4.16l0,0v0c-.5.71-1,1.45-1.39,2.21l-.06.09-.08.15c-.25.46-.5.92-.74,1.39-3.32,6.12-5.33,13.54-7,21.34a160.93,160.93,0,0,0-2.49,25.71,153.87,153.87,0,0,0,1.8,26.4A91.61,91.61,0,0,0,66.55,140c.21.48.42,1,.64,1.42l.09.21.12.22c.47,1,1,1.92,1.47,2.86a27.79,27.79,0,0,0,2.7,4l.28.38c.18.33.5.52.71.81s.62.58.86.94l.24.19.07.07.06,0c.53.43,1.05.86,1.61,1.26l.29.17.1.09.57.27a9.06,9.06,0,0,0,2.6.89,7.24,7.24,0,0,0,1.42.13H81a.15.15,0,0,0,.08,0l.39-.05a10.09,10.09,0,0,0,4.81-2.23,21.07,21.07,0,0,0,3.79-4.16l0,0,0,0q.74-1.06,1.39-2.2l.06-.09.08-.15c.25-.46.5-.92.74-1.39,3.32-6.12,5.33-13.54,7-21.34a160.93,160.93,0,0,0,2.49-25.71A153.87,153.87,0,0,0,100,70.07ZM94,115.4c-1.15,5.6-2.57,10.94-4.92,15.33-.17.34-.34.67-.52,1l-.06.11,0,.06q-.46.82-1,1.58v0a15.11,15.11,0,0,1-2.68,3,7.08,7.08,0,0,1-3.4,1.6l-.28,0-.06,0h-.43a5,5,0,0,1-1-.09,6.34,6.34,0,0,1-1.84-.64l-.4-.19-.07-.07-.21-.12c-.4-.28-.77-.6-1.14-.9l0,0,0-.05-.17-.14c-.17-.26-.44-.41-.61-.68s-.38-.35-.5-.58l-.2-.27a20,20,0,0,1-1.91-2.84c-.36-.67-.71-1.35-1-2.05l-.08-.16-.07-.15c-.16-.34-.31-.68-.45-1a66.67,66.67,0,0,1-4.19-16,112.33,112.33,0,0,1-1.28-19,117.46,117.46,0,0,1,1.76-18.47c1.15-5.6,2.57-10.94,4.92-15.33.17-.34.34-.67.52-1l.06-.11,0-.06q.46-.82,1-1.58v0l0,0a15.06,15.06,0,0,1,2.68-3,7.08,7.08,0,0,1,3.4-1.6l.28,0,.06,0h.43a5,5,0,0,1,1,.09,6.34,6.34,0,0,1,1.84.64l.4.19.07.07.21.12c.4.28.77.6,1.14.9l0,0,0,0,.18.15c.17.26.44.41.61.68s.38.35.5.58l.2.27a20,20,0,0,1,1.91,2.84c.36.67.71,1.35,1,2.05l.08.16.07.15c.16.34.31.68.45,1a66.68,66.68,0,0,1,4.19,16,112.33,112.33,0,0,1,1.28,19A117.46,117.46,0,0,1,94,115.4Z"/><path id="svg_4" data-name="svg 4" class="cls-1" d="M80.17,83A17.5,17.5,0,0,1,82.42,86c2,4.41,2.21,11,0,15.42a8.15,8.15,0,0,1-1,1.63,7.2,7.2,0,0,1-3.38,3,5.51,5.51,0,0,1-1.93.45c-4.27-3.11-5.11-23,0-25.31A5.68,5.68,0,0,1,80.17,83Z"/><path class="cls-1" d="M40.48,69.26s-13.16.46-13.34.91C24,78,22.46,82.07,22.46,93s2.54,19,6.65,28.42c.18.4,12.89.79,12.89.79L62.19,145c1,.66-1.84-3.4-2.33-4.55-2.92-6.84-7.93-18.64-7.93-47,0-27.26,5-39.78,7.77-46.15.5-1.14,2.48-5.38.22-3.11Z"/><path class="cls-1" d="M120.25,99.6a54.24,54.24,0,0,1-4.62,21.94l6.34,6.34a62.69,62.69,0,0,0,0-56.55l-6.34,6.34A54.24,54.24,0,0,1,120.25,99.6Z"/><path class="cls-1" d="M136.74,56.56l-6.19,6.19a74.27,74.27,0,0,1,0,73.71l6.19,6.19a82.86,82.86,0,0,0,0-86.09Z"/><path class="cls-1" d="M152.79,40.51l-7.62,7.62a94.43,94.43,0,0,1,0,102.94l7.62,7.62a105,105,0,0,0,0-118.19Z"/></svg>