<?xml version="1.0" encoding="UTF-8" standalone="no"?>
<svg
   xmlns:dc="http://purl.org/dc/elements/1.1/"
   xmlns:cc="http://creativecommons.org/ns#"
   xmlns:rdf="http://www.w3.org/1999/02/22-rdf-syntax-ns#"
   xmlns:svg="http://www.w3.org/2000/svg"
   xmlns="http://www.w3.org/2000/svg"
   xmlns:sodipodi="http://sodipodi.sourceforge.net/DTD/sodipodi-0.dtd"
   xmlns:inkscape="http://www.inkscape.org/namespaces/inkscape"
   inkscape:version="1.0 (4035a4fb49, 2020-05-01)"
   sodipodi:docname="Bundesinstitut für Berufsbildung Logo 01.2021.svg"
   id="svg92"
   version="1.1"
   viewBox="0 0 400.00003 85.957832"
   height="85.957832"
   width="400.00003">
  <metadata
     id="metadata96">
    <rdf:RDF>
      <cc:Work
         rdf:about="">
        <dc:format>image/svg+xml</dc:format>
        <dc:type
           rdf:resource="http://purl.org/dc/dcmitype/StillImage" />
        <dc:title></dc:title>
      </cc:Work>
    </rdf:RDF>
  </metadata>
  <sodipodi:namedview
     inkscape:current-layer="svg92"
     inkscape:window-maximized="1"
     inkscape:window-y="-8"
     inkscape:window-x="-8"
     inkscape:cy="47.743579"
     inkscape:cx="291.1364"
     inkscape:zoom="1.0835294"
     fit-margin-bottom="0"
     fit-margin-right="0"
     fit-margin-left="0"
     fit-margin-top="0"
     showgrid="false"
     id="namedview94"
     inkscape:window-height="837"
     inkscape:window-width="1600"
     inkscape:pageshadow="2"
     inkscape:pageopacity="0"
     guidetolerance="10"
     gridtolerance="10"
     objecttolerance="10"
     borderopacity="1"
     bordercolor="#666666"
     pagecolor="#ffffff" />
  <defs
     id="defs20" />
  <path
     id="path70"
     d="m 192.55232,38.550374 h 2.24688 c 2.1306,0 4.96197,-0.554648 4.96197,-3.794545 0,-2.947646 -2.71353,-3.356168 -4.43718,-3.356168 h -2.77167 z m -0.0581,9.719691 h 2.10074 c 2.71511,0 5.77903,-0.729056 5.77903,-3.968953 0,-3.618565 -3.12206,-3.998805 -6.09956,-3.998805 h -1.78021 z m -2.01433,-18.620766 h 4.84413 c 3.32789,0 6.45151,1.107724 6.45151,5.018541 0,2.598831 -1.19571,4.146502 -3.70655,4.641443 v 0.05814 c 2.56897,0.466658 4.31933,2.160455 4.31933,4.847275 0,4.435611 -3.62013,5.807303 -7.85148,5.807303 h -4.05694 z m 27.12431,16.870404 c 0,1.139149 0,2.305009 0.11627,3.502294 h -1.77864 v -2.655395 h -0.0597 c -0.61278,1.341839 -1.72207,3.005782 -4.81585,3.005782 -3.6767,0 -5.07982,-2.451135 -5.07982,-5.720885 v -9.51543 h 1.83993 v 9.0472 c 0,2.803093 0.99302,4.613161 3.53214,4.613161 3.35617,0 4.40733,-2.949217 4.40733,-5.430205 v -8.230156 h 1.83835 z m 3.94067,-7.88134 c 0,-1.137577 0,-2.305009 -0.11784,-3.503865 h 1.78022 v 2.655396 h 0.0581 c 0.61278,-1.340268 1.72365,-3.004211 4.81742,-3.004211 3.6767,0 5.07668,2.451134 5.07668,5.719314 v 9.517 h -1.83835 v -9.0472 c 0,-2.804663 -0.99145,-4.61316 -3.53058,-4.61316 -3.35774,0 -4.40733,2.947646 -4.40733,5.428634 v 8.231726 h -1.83835 z M 242.7409,48.79643 c 3.26818,0 4.40733,-3.503865 4.40733,-6.217397 0,-2.713531 -1.13758,-6.217396 -4.40733,-6.217396 -3.50386,0 -4.4089,3.327886 -4.4089,6.217396 0,2.88794 0.90504,6.217397 4.4089,6.217397 z m 6.24568,1.225567 h -1.83835 v -2.364716 h -0.0597 c -0.99145,1.896487 -2.50927,2.713532 -4.63987,2.713532 -4.08522,0 -6.13098,-3.384451 -6.13098,-7.793351 0,-4.5236 1.75351,-7.79335 6.13098,-7.79335 2.91936,0 4.37748,2.132172 4.63987,2.862799 h 0.0597 V 28.12991 h 1.83835 v 21.890516 z m 13.20627,-8.494123 c 0,-2.59726 -1.04959,-5.166237 -3.79454,-5.166237 -2.71353,0 -4.37591,2.713531 -4.37591,5.166237 z m 0.90661,8.027465 c -1.28685,0.524794 -2.94922,0.817045 -4.32091,0.817045 -4.93212,0 -6.77205,-3.327886 -6.77205,-7.793351 0,-4.555024 2.50927,-7.79335 6.27554,-7.79335 4.20306,0 5.92671,3.386022 5.92671,7.384828 v 0.933317 H 254.0224 c 0,3.151907 1.69066,5.692602 4.90227,5.692602 1.34184,0 3.29961,-0.554648 4.17479,-1.109295 z m 3.09063,-1.693797 c 1.10772,0.556219 2.45113,0.934888 3.88096,0.934888 1.75036,0 3.2996,-0.964741 3.2996,-2.656967 0,-3.530576 -7.15071,-2.9775 -7.15071,-7.296838 0,-2.947647 2.39143,-4.058513 4.84256,-4.058513 0.79034,0 2.36629,0.175979 3.67828,0.67249 l -0.17441,1.605808 c -0.96317,-0.439948 -2.2783,-0.700773 -3.29961,-0.700773 -1.89648,0 -3.20847,0.584501 -3.20847,2.480988 0,2.771667 7.32512,2.422852 7.32512,7.296838 0,3.151908 -2.94764,4.232921 -5.19452,4.232921 -1.42983,0 -2.86123,-0.174408 -4.17478,-0.700773 z m 11.84243,2.160455 h 1.83835 V 35.136069 h -1.83835 z m 0,-18.85488 h 1.83835 v -2.452706 h -1.83835 v 2.451135 z m 5.74289,7.471246 c 0,-1.137577 0,-2.305009 -0.11785,-3.503865 h 1.78022 v 2.655396 h 0.0581 c 0.61279,-1.340268 1.72365,-3.004211 4.81743,-3.004211 3.6767,0 5.07824,2.451134 5.07824,5.719314 v 9.517 h -1.83835 v -9.0472 c 0,-2.804663 -0.99302,-4.61316 -3.53215,-4.61316 -3.35774,0 -4.40889,2.947646 -4.40889,5.428634 v 8.231726 H 283.7738 V 38.638363 Z m 14.33913,9.223179 c 1.10773,0.556219 2.45114,0.934888 3.88254,0.934888 1.75036,0 3.29803,-0.964741 3.29803,-2.656967 0,-3.530576 -7.15071,-2.9775 -7.15071,-7.296838 0,-2.947647 2.39142,-4.058513 4.84413,-4.058513 0.78876,0 2.36471,0.175979 3.6767,0.67249 l -0.17284,1.605808 c -0.96474,-0.439948 -2.27829,-0.700773 -3.2996,-0.700773 -1.89806,0 -3.21004,0.584501 -3.21004,2.480988 0,2.771667 7.32512,2.422852 7.32512,7.296838 0,3.151908 -2.94765,4.232921 -5.19452,4.232921 -1.42983,0 -2.86123,-0.174408 -4.17322,-0.700773 z m 18.74175,-11.149519 h -3.38759 v 9.631701 c 0,1.343411 0.49808,2.451135 1.98605,2.451135 0.6992,0 1.16743,-0.144554 1.69222,-0.348815 l 0.11627,1.517817 c -0.43837,0.174408 -1.34183,0.408523 -2.24687,0.408523 -3.26818,0 -3.38602,-2.246873 -3.38602,-4.963547 v -8.696814 h -2.91937 v -1.575954 h 2.91937 v -3.590283 l 1.83835,-0.644208 v 4.234491 h 3.38602 v 1.575954 z m 2.75439,13.309974 H 321.449 V 35.136069 h -1.83835 z m 0,-18.85488 h 1.83835 v -2.452706 h -1.83835 v 2.451135 z m 12.3248,5.544906 h -3.38602 v 9.631701 c 0,1.343411 0.49808,2.451135 1.98605,2.451135 0.70077,0 1.16743,-0.144554 1.69222,-0.348815 l 0.11628,1.517817 c -0.43838,0.174408 -1.34184,0.408523 -2.24688,0.408523 -3.26975,0 -3.38602,-2.246873 -3.38602,-4.963547 v -8.696814 h -2.91936 v -1.575954 h 2.91936 v -3.590283 l 1.83835,-0.644208 v 4.234491 h 3.38602 z m 14.14588,9.80768 c 0,1.139149 0,2.305009 0.11784,3.502294 h -1.78021 v -2.655395 h -0.0581 c -0.61278,1.341839 -1.72208,3.005782 -4.81585,3.005782 -3.67827,0 -5.07982,-2.451135 -5.07982,-5.720885 v -9.51543 h 1.83992 v 9.0472 c 0,2.803093 0.99303,4.613161 3.53058,4.613161 3.35774,0 4.4089,-2.949217 4.4089,-5.430205 v -8.230156 h 1.83835 v 11.383634 z m 10.50845,-9.80768 h -3.38602 v 9.631701 c 0,1.343411 0.49808,2.451135 1.98605,2.451135 0.6992,0 1.16743,-0.144554 1.69222,-0.348815 l 0.11627,1.517817 c -0.43837,0.174408 -1.34184,0.408523 -2.24687,0.408523 -3.26975,0 -3.38445,-2.246873 -3.38445,-4.963547 v -8.696814 h -2.92251 v -1.575954 h 2.92251 v -3.590283 l 1.83835,-0.644208 v 4.234491 h 3.38445 z m 13.25184,0 h -3.00578 v -1.575954 h 3.00578 v -1.081013 c 0,-3.123625 0.11627,-6.273961 3.94067,-6.273961 0.5845,0 1.37012,0.08642 1.72208,0.290679 l -0.11784,1.607379 c -0.37867,-0.205833 -0.93332,-0.322104 -1.45812,-0.322104 -2.51241,0 -2.24844,2.713531 -2.24844,4.493746 v 1.285274 h 3.35617 v 1.575954 H 371.68 v 13.309974 h -1.83835 V 36.713594 Z m 14.9802,-4.144931 h 2.19031 v -2.451134 h -2.19031 z m -4.98869,0 h 2.18717 v -2.451134 h -2.18717 z m 9.33788,13.952611 c 0,1.139149 0,2.305009 0.11785,3.502294 h -1.78022 v -2.655395 h -0.0581 c -0.61279,1.341839 -1.72365,3.005782 -4.81743,3.005782 -3.6767,0 -5.07667,-2.451135 -5.07667,-5.720885 v -9.51543 h 1.83835 v 9.048772 c 0,2.801521 0.99145,4.611589 3.53057,4.611589 3.35774,0 4.40733,-2.949217 4.40733,-5.430205 v -8.230156 h 1.83835 z m 3.94067,-8.057318 c 0,-1.63409 0,-2.246874 -0.11627,-3.327887 h 1.83835 v 2.861228 h 0.0597 c 0.67092,-1.662372 1.92634,-3.210043 3.82283,-3.210043 0.4368,0 0.96317,0.08799 1.2837,0.174408 v 1.927911 c -0.38024,-0.116272 -0.87518,-0.174408 -1.34184,-0.174408 -2.91936,0 -3.70813,3.26818 -3.70813,5.951858 v 7.356545 H 393.1117 V 38.460813 Z M 192.55232,68.18239 h 2.24688 c 2.1306,0 4.96197,-0.554648 4.96197,-3.794545 0,-2.947646 -2.71353,-3.356169 -4.43718,-3.356169 h -2.77167 z m -0.0581,9.72126 h 2.10074 c 2.71511,0 5.77903,-0.73063 5.77903,-3.97052 0,-3.61857 -3.12206,-3.99881 -6.09956,-3.99881 h -1.78021 z m -2.01433,-18.622335 h 4.84413 c 3.32789,0 6.45151,1.107724 6.45151,5.01854 0,2.598831 -1.19571,4.146503 -3.70655,4.641445 v 0.0581 c 2.56897,0.46666 4.31933,2.16046 4.31933,4.84728 0,4.43561 -3.62013,5.8073 -7.85148,5.8073 h -4.05694 z m 24.86487,11.877005 c 0,-2.59569 -1.04959,-5.164668 -3.79454,-5.164668 -2.71354,0 -4.37905,2.713532 -4.37905,5.166238 h 8.17359 z m 0.90503,8.02903 c -1.28527,0.5248 -2.94921,0.81705 -4.32091,0.81705 -4.93055,0 -6.77047,-3.32789 -6.77047,-7.79335 0,-4.555026 2.50927,-7.793352 6.27553,-7.793352 4.20307,0 5.92515,3.386023 5.92515,7.384832 v 0.93331 h -10.18792 c 0,3.15191 1.6938,5.69103 4.90384,5.69103 1.34341,0 3.2996,-0.55307 4.17478,-1.10772 z m 4.06952,-11.09295 c 0,-1.63409 0,-2.246873 -0.11785,-3.326315 h 1.83835 v 2.859657 h 0.0581 c 0.67249,-1.662372 1.92791,-3.210044 3.8244,-3.210044 0.4368,0 0.96317,0.08799 1.2837,0.174408 v 1.927912 c -0.38024,-0.116272 -0.87518,-0.174408 -1.34184,-0.174408 -2.91936,0 -3.70812,3.26818 -3.70812,5.95186 v 7.35654 H 220.3177 V 68.0944 Z m 20.82364,8.05732 c 0,1.13915 0,2.30501 0.11627,3.50229 h -1.77864 v -2.65539 h -0.0581 c -0.61435,1.34027 -1.72365,3.00578 -4.81742,3.00578 -3.6767,0 -5.07825,-2.45113 -5.07825,-5.72089 v -9.515425 h 1.83835 v 9.047205 c 0,2.80309 0.99303,4.61316 3.53215,4.61316 3.35617,0 4.40733,-2.94922 4.40733,-5.43021 v -8.230155 h 1.83835 z m 5.35636,-9.807681 h -3.00578 v -1.575954 h 3.00578 v -1.081013 c 0,-3.123625 0.11627,-6.273962 3.94067,-6.273962 0.5845,0 1.37169,0.08642 1.72208,0.29068 l -0.11628,1.607378 c -0.38024,-0.204261 -0.93488,-0.322104 -1.46125,-0.322104 -2.50927,0 -2.24687,2.713532 -2.24687,4.493747 v 1.285274 h 3.35774 v 1.575954 h -3.35774 V 79.65401 h -1.83835 v -13.3084 z m 7.03915,11.151091 c 1.10773,0.55465 2.45114,0.93174 3.88411,0.93174 1.74879,0 3.29646,-0.96317 3.29646,-2.65539 0,-3.53058 -7.14914,-2.9775 -7.14914,-7.29684 0,-2.947646 2.39142,-4.058513 4.84256,-4.058513 0.78876,0 2.36472,0.175979 3.67984,0.672491 l -0.17598,1.605807 c -0.96317,-0.438376 -2.27829,-0.700773 -3.2996,-0.700773 -1.89649,0 -3.21004,0.584501 -3.21004,2.480988 0,2.77167 7.32669,2.42128 7.32669,7.29684 0,3.15191 -2.94765,4.23292 -5.19452,4.23292 -1.42983,0 -2.8628,-0.17441 -4.17479,-0.70077 z M 271.5653,65.993652 c -3.35617,0 -4.4089,3.503868 -4.4089,6.215828 0,2.7151 1.13915,6.21739 4.4089,6.21739 3.50229,0 4.40733,-3.32631 4.40733,-6.21739 0,-2.88794 -0.90504,-6.215828 -4.40733,-6.215828 z m -6.24725,-8.231726 h 1.83835 v 9.515429 h 0.0581 c 0.26396,-0.727484 1.72365,-2.859657 4.64301,-2.859657 4.37747,0 6.13098,3.26818 6.13098,7.793352 0,4.40733 -2.04576,7.79335 -6.13098,7.79335 -2.1306,0 -3.64842,-0.81705 -4.64301,-2.71353 h -0.0581 v 2.36314 h -1.83835 z m 15.90252,21.890514 h 1.83835 V 64.766514 h -1.83835 z m 0,-18.854879 h 1.83835 v -2.451134 h -1.83835 z m 5.72874,18.854879 h 1.83835 V 57.761926 h -1.83835 z m 11.4732,-1.22557 c 3.26975,0 4.40889,-3.50229 4.40889,-6.21582 0,-2.71353 -1.13914,-6.217398 -4.40889,-6.217398 -3.5023,0 -4.40733,3.326318 -4.40733,6.217398 0,2.88951 0.90503,6.21582 4.40733,6.21582 z m 6.24725,1.22557 H 302.8314 V 77.2893 h -0.0597 c -0.99303,1.89648 -2.51084,2.71353 -4.63987,2.71353 -4.0868,0 -6.13098,-3.38602 -6.13098,-7.79335 0,-4.523602 1.75193,-7.793353 6.13098,-7.793353 2.91779,0 4.37747,2.132173 4.63987,2.859657 h 0.0597 v -9.513858 h 1.83836 z m 15.42486,-3.50072 c 0,1.13915 0,2.30501 0.11627,3.50229 h -1.78021 v -2.65539 h -0.0581 c -0.61278,1.34027 -1.72208,3.00578 -4.81585,3.00578 -3.6767,0 -5.07825,-2.45113 -5.07825,-5.72089 v -9.515425 h 1.83835 v 9.047205 c 0,2.80309 0.99145,4.61316 3.53215,4.61316 3.35774,0 4.40576,-2.94922 4.40576,-5.43021 v -8.230155 h 1.83992 z m 3.9391,-7.881341 c 0,-1.139149 0,-2.305009 -0.11627,-3.503865 h 1.78178 v 2.655395 h 0.0581 c 0.61278,-1.340267 1.72051,-3.004211 4.81585,-3.004211 3.67827,0 5.07825,2.451135 5.07825,5.719312 v 9.517 h -1.83835 v -9.05034 c 0,-2.801521 -0.99303,-4.610018 -3.53058,-4.610018 -3.35774,0 -4.4089,2.947648 -4.4089,5.428638 v 8.23172 h -1.83835 V 68.270379 Z m 21.03105,9.806111 c 3.32788,0 4.52517,-3.15191 4.52517,-5.86544 0,-3.591856 -1.05273,-6.217398 -4.4089,-6.217398 -3.5023,0 -4.40733,3.327888 -4.40733,6.217398 0,2.91779 1.169,5.86544 4.29106,5.86544 z m 6.36352,0.35038 c 0,4.14494 -1.86978,7.53096 -6.97631,7.53096 -1.95776,0 -3.73641,-0.55465 -4.49532,-0.78719 l 0.14613,-1.83835 c 1.13758,0.5845 2.77167,1.05116 4.37747,1.05116 4.72944,0 5.13796,-3.44416 5.13796,-7.64723 h -0.0581 c -0.99302,2.15731 -2.62711,2.91622 -4.52517,2.91622 -4.75771,0 -6.27553,-4.14493 -6.27553,-7.44139 0,-4.525172 1.75193,-7.793352 6.13098,-7.793352 1.98447,0 3.26818,0.262398 4.64144,2.042612 h 0.0581 v -1.693796 h 1.83835 z"
     fill="#00336a"
     style="fill-rule:evenodd;stroke-width:1.57124" />
  <path
     id="path72"
     d="M 55.65489,79.65087 H 68.12111 V 22.21262 L 55.65489,29.647728 Z M 55.65489,0 V 14.775941 L 68.12111,22.21262 V 0 Z M 25.00471,29.665012 v -0.0079 H 12.50393 V 0 H 0 v 42.159512 h 25.00471 c 6.89932,0 12.49136,5.593615 12.49136,12.491358 0,6.900887 -5.59204,12.494501 -12.49136,12.494501 H 0 V 79.64773 h 25.00471 v 0.0251 c 13.80963,0 25.00472,-11.193516 25.00472,-25.001573 0,-13.8112 -11.19509,-25.006285 -25.00472,-25.006285"
     fill="#95c11e"
     style="fill-rule:evenodd;stroke-width:1.57124" />
  <path
     id="path74"
     d="m 101.52725,29.665012 v -0.0079 H 89.02489 V 0 H 76.52253 v 42.159512 h 25.00472 c 6.89931,0 12.49135,5.593615 12.49135,12.491358 0,6.900887 -5.59204,12.494501 -12.49135,12.494501 H 76.51939 V 79.64773 h 25.00628 v 0.0251 c 13.80806,0 25.00315,-11.193516 25.00315,-25.001573 0,-13.8112 -11.19509,-25.006285 -25.00315,-25.006285 m 51.44712,0 v -0.0079 H 140.472 V 0 h -12.50393 v 42.159512 h 25.00472 c 6.89931,0 12.49135,5.593615 12.49135,12.491358 0,6.900887 -5.59204,12.494501 -12.49135,12.494501 H 127.96807 V 79.64773 h 25.00472 v 0.0251 c 13.80805,0 25.00314,-11.193516 25.00314,-25.001573 0,-13.8112 -11.19509,-25.006285 -25.00314,-25.006285"
     fill="#00336a"
     style="fill-rule:evenodd;stroke-width:1.57124" />
</svg>
