<?xml version="1.0" standalone="no"?>
<!DOCTYPE svg PUBLIC "-//W3C//DTD SVG 20010904//EN"
 "http://www.w3.org/TR/2001/REC-SVG-20010904/DTD/svg10.dtd">
<svg version="1.0" xmlns="http://www.w3.org/2000/svg"
 width="1537.000000pt" height="468.000000pt" viewBox="0 0 1537.000000 468.000000"
 preserveAspectRatio="xMidYMid meet">

<g transform="translate(0.000000,468.000000) scale(0.100000,-0.100000)"
fill="#d72733" stroke="none">
<path d="M12440 2550 l0 -2131 163 144 c435 385 780 687 783 685 1 -2 131
-279 288 -617 157 -337 287 -615 289 -617 4 -5 649 269 651 277 0 3 -118 270
-263 593 -145 322 -262 588 -260 590 2 2 287 8 632 12 l629 9 -1193 1305
c-656 718 -1311 1434 -1456 1593 l-263 287 0 -2130z"/>
</g>
<g transform="translate(0.000000,468.000000) scale(0.100000,-0.100000)"
fill="#000000" stroke="none">
<path d="M389 3817 c-84 -29 -141 -68 -191 -131 -86 -109 -118 -207 -125 -382
-7 -160 10 -247 68 -363 85 -170 213 -251 399 -251 229 0 387 132 451 377 30
112 30 281 0 388 -41 147 -117 264 -208 323 -101 65 -270 81 -394 39z m245
-216 c66 -41 106 -166 106 -336 0 -246 -77 -377 -214 -361 -103 12 -158 92
-178 262 -14 128 0 270 35 348 24 52 72 98 112 109 37 10 103 0 139 -22z"/>

<path d="M5898 3826 c-81 -24 -140 -58 -197 -115 -109 -110 -161 -253 -161
-445 0 -202 47 -334 154 -442 93 -92 197 -134 336 -134 140 0 254 45 336 132
54 58 102 156 111 227 l6 51 -35 0 c-19 0 -75 3 -124 6 l-90 7 -18 -59 c-36
-115 -129 -173 -233 -145 -117 32 -161 147 -150 396 8 180 42 266 123 305 50
25 97 25 150 1 52 -24 83 -73 97 -158 l12 -66 89 7 c49 3 109 6 133 6 42 0 43
0 43 34 0 59 -48 191 -88 245 -85 112 -170 152 -337 157 -72 2 -126 -1 -157
-10z"/>
<path d="M11328 3821 c-72 -24 -117 -52 -162 -101 -65 -72 -89 -140 -88 -243
3 -177 104 -266 387 -337 172 -44 222 -91 183 -175 -22 -48 -73 -70 -163 -69
-116 0 -181 39 -215 129 -8 21 -15 26 -33 22 -12 -3 -66 -15 -119 -27 -54 -13
-98 -28 -98 -34 0 -6 13 -38 29 -71 34 -73 111 -147 184 -179 144 -64 345 -62
494 4 64 28 147 117 174 187 31 81 31 190 0 254 -58 121 -132 167 -363 227
-149 39 -182 56 -199 101 -14 37 7 88 44 108 47 26 162 24 207 -3 31 -18 72
-66 82 -96 3 -7 44 2 115 26 l112 37 -13 30 c-38 90 -115 162 -215 200 -80 31
-263 37 -343 10z"/>
<path d="M1180 3265 l0 -555 106 0 106 0 -4 364 c-2 200 -2 363 0 361 2 -2 97
-164 211 -361 l208 -359 117 -3 116 -3 0 556 0 555 -105 0 -105 0 -2 -314 -3
-314 -180 311 -180 312 -143 3 -142 3 0 -556z"/>
<path d="M2250 3265 l0 -555 355 0 355 0 0 110 0 110 -220 0 -220 0 0 445 0
445 -135 0 -135 0 0 -555z"/>
<path d="M3090 3265 l0 -555 130 0 130 0 0 555 0 555 -130 0 -130 0 0 -555z"/>
<path d="M3570 3265 l0 -555 106 0 106 0 -4 364 c-2 200 -2 363 0 361 2 -2 97
-164 211 -361 l208 -359 117 -3 116 -3 0 556 0 555 -105 0 -105 0 -2 -314 -3
-314 -180 311 -180 312 -143 3 -142 3 0 -556z"/>
<path d="M4640 3265 l0 -555 395 0 395 0 0 110 0 110 -260 0 -260 0 0 115 0
115 205 0 205 0 0 110 0 110 -205 0 -205 0 0 110 0 110 260 0 260 0 0 110 0
110 -395 0 -395 0 0 -555z"/>
<path d="M6841 3788 c-6 -18 -83 -260 -171 -538 -88 -278 -163 -513 -166 -522
-5 -16 5 -18 110 -18 l114 0 32 103 c17 56 33 108 35 115 4 10 45 12 181 10
l177 -3 8 -25 c4 -14 20 -64 34 -112 l26 -88 141 0 c129 0 140 1 135 18 -2 9
-80 259 -172 555 l-168 537 -153 0 -152 0 -11 -32z m198 -465 c28 -95 51 -175
51 -178 0 -3 -52 -5 -116 -5 -89 0 -115 3 -111 13 2 6 28 92 58 190 29 97 56
172 60 165 3 -7 29 -90 58 -185z"/>
<path d="M7620 3265 l0 -555 110 0 110 0 1 443 0 442 132 -440 132 -440 92 -3
92 -3 20 68 c12 37 72 235 135 438 l115 370 0 -437 1 -438 135 0 135 0 0 555
0 555 -205 0 -204 0 -40 -127 c-22 -71 -65 -211 -96 -313 -32 -102 -60 -190
-64 -197 -3 -7 -49 134 -100 312 l-94 325 -204 0 -203 0 0 -555z"/>
<path d="M9050 3265 l0 -555 135 0 135 0 0 209 0 209 173 4 c149 3 178 6 219
25 70 32 131 94 164 166 25 54 28 74 29 157 0 76 -4 104 -21 141 -44 94 -127
160 -233 185 -39 10 -137 14 -328 14 l-273 0 0 -555z m527 332 c87 -46 84
-204 -4 -247 -17 -8 -75 -15 -145 -18 l-118 -4 0 147 0 147 118 -4 c86 -3 126
-8 149 -21z"/>
<path d="M10040 3417 c0 -440 4 -478 58 -567 63 -102 168 -150 347 -157 184
-8 309 30 395 118 77 80 90 172 90 662 l0 347 -114 0 -115 0 -3 -409 c-3 -398
-4 -410 -24 -438 -37 -50 -80 -67 -164 -68 -88 0 -132 20 -165 75 -19 33 -20
54 -23 438 l-3 402 -140 0 -139 0 0 -403z"/>
<path d="M10380 2236 c-165 -45 -293 -194 -335 -391 -22 -103 -19 -284 5 -379
40 -158 126 -272 246 -328 53 -25 83 -32 154 -36 124 -7 208 19 284 89 l55 51
17 -61 17 -61 59 0 58 0 0 295 0 295 -225 0 -225 0 0 -100 0 -100 100 0 100 0
0 -35 c0 -51 -33 -109 -77 -136 -57 -35 -145 -34 -201 4 -79 52 -113 151 -113
330 1 197 39 297 131 345 51 26 124 25 166 -2 38 -26 74 -81 87 -136 l12 -52
45 6 c184 24 200 28 200 46 0 45 -44 153 -84 207 -79 108 -199 164 -350 162
-44 0 -101 -6 -126 -13z"/>
<path d="M6380 1675 l0 -555 135 0 135 0 0 209 0 209 173 4 c149 3 178 6 219
25 70 32 131 94 164 166 25 54 28 74 29 157 0 76 -4 104 -21 141 -44 94 -127
160 -233 185 -39 10 -137 14 -328 14 l-273 0 0 -555z m527 332 c87 -46 84
-204 -4 -247 -17 -8 -75 -15 -145 -18 l-118 -4 0 147 0 147 118 -4 c86 -3 126
-8 149 -21z"/>
<path d="M7380 1675 l0 -555 135 0 135 0 0 210 0 210 205 0 205 0 0 110 0 110
-205 0 -205 0 0 125 0 125 260 0 260 0 0 110 0 110 -395 0 -395 0 0 -555z"/>
<path d="M8300 1675 l0 -555 355 0 355 0 0 110 0 110 -220 0 -220 0 0 445 0
445 -135 0 -135 0 0 -555z"/>
<path d="M9140 1675 l0 -555 395 0 395 0 0 110 0 110 -260 0 -260 0 0 115 0
115 205 0 205 0 0 110 0 110 -205 0 -205 0 0 110 0 110 260 0 260 0 0 110 0
110 -395 0 -395 0 0 -555z"/>
<path d="M11150 1675 l0 -555 395 0 395 0 0 110 0 110 -260 0 -260 0 0 115 0
115 205 0 205 0 0 110 0 110 -205 0 -205 0 0 110 0 110 260 0 260 0 0 110 0
110 -395 0 -395 0 0 -555z"/>
</g>
</svg>
